Motion_mu16
version=1
nRows=12
nColumns=43
inDegrees=yes
endheader
time	pelvis_tilt	pelvis_list	pelvis_rotation	pelvis_tx	pelvis_ty	pelvis_tz	hip_flexion_r	hip_adduction_r	hip_rotation_r	knee_angle_r	ankle_angle_r	subtalar_angle_r	mtp_angle_r	hip_flexion_l	hip_adduction_l	hip_rotation_l	knee_angle_l	ankle_angle_l	subtalar_angle_l	mtp_angle_l	lumbar_extension	lumbar_bending	lumbar_rotation	neck_flexion	neck_lateral_bending	neck_rotation	arm_flex_r	arm_add_r	arm_rot_r	elbow_flex_r	pro_sup_r	wrist_flex_r	wrist_dev_r	hand_finger_flex_r	arm_flex_l	arm_add_l	arm_rot_l	elbow_flex_l	pro_sup_l	wrist_flex_l	wrist_dev_l	hand_finger_flex_l
      0.00250000	     -0.20745489	     17.66454107	    -91.93707567	      0.00225370	      0.95791325	      0.62581412	     12.49515205	     -5.07800215	    -14.18062836	     -7.77575387	     -3.35175798	      3.09691044	      4.33924384	     18.50918256	     -2.27231563	    -12.65512922	    -11.69379804	      2.54555781	      1.25295431	     -1.45555120	      7.86113283	      2.20625439	      0.25019304	     32.43216927	      0.80999669	     11.41641118	    -34.40204565	   -162.02340670	   -125.73495525	     26.97279197	    135.25852517	     13.01302454	    -15.73757847	     15.68755238	    -31.80717082	    203.03486519	   -108.82447660	     29.34369861	    118.32129621	    -23.07910304	    -12.43396428	     41.11182207
      0.00500000	     -0.20862202	     17.66989114	    -91.93802280	      0.00210586	      0.95823132	      0.62676066	     12.53177217	     -5.07564317	    -14.18384525	     -7.76002474	     -3.35914806	      3.09714488	      4.33885751	     18.45503922	     -2.28128800	    -12.64620951	    -11.70351775	      2.53992303	      1.25801622	     -1.45644882	      7.88462427	      2.20140985	      0.24605689	     32.42630353	      0.81144538	     11.41265836	    -34.38824813	   -162.00018991	   -125.73460121	     26.96242933	    135.25777848	     13.01501451	    -15.73910823	     15.68890776	    -31.80077099	    203.04835209	   -108.82568008	     29.33892322	    118.32609229	    -23.07616775	    -12.43790585	     41.11561704
      0.00750000	     -0.20470390	     17.68335565	    -91.94807888	      0.00191363	      0.95853484	      0.62771445	     12.56328065	     -5.06107192	    -14.18969515	     -7.74776548	     -3.37730623	      3.09734737	      4.33754262	     18.39784236	     -2.29647402	    -12.63592589	    -11.70754504	      2.53233031	      1.26449575	     -1.45769834	      7.91442226	      2.18755086	      0.25090851	     32.41657304	      0.81285484	     11.40736349	    -34.37546941	   -161.97900499	   -125.72926308	     26.94716963	    135.25701500	     13.02183425	    -15.74234993	     15.69278840	    -31.77992365	    203.05899170	   -108.82260509	     29.33902548	    118.33386300	    -23.06932498	    -12.44413124	     41.12155860
      0.01000000	     -0.27647379	     17.86636671	    -92.10798782	      0.00157520	      0.95872353	      0.62874666	     12.79356947	     -4.94213527	    -14.40984425	     -7.62534915	     -4.66244682	      3.03716171	      4.24984917	     18.13079829	     -2.37764622	    -12.47285577	    -10.88552755	      2.17694429	      1.56323965	     -1.52808044	      8.17345175	      2.28884123	      0.43621149	     32.07626121	      0.91794076	     11.10022128	    -34.28596018	   -161.94102983	   -125.11965862	     26.78763668	    135.10482789	     13.55706310	    -16.11660410	     16.02159457	    -31.63545847	    203.08191577	   -108.17615209	     29.40985944	    118.86913552	    -22.44189247	    -12.84645255	     41.54011624
      0.01250000	     -0.26871974	     17.88145179	    -92.10947733	      0.00142826	      0.95902818	      0.62967905	     12.81216916	     -4.93015713	    -14.41285008	     -7.61285188	     -4.67066298	      3.03384112	      4.24983840	     18.08982383	     -2.38637039	    -12.47670642	    -10.90825981	      2.17076454	      1.56305399	     -1.52910996	      8.19423173	      2.27263260	      0.43214688	     32.07366527	      0.91476081	     11.09890378	    -34.25978239	   -161.91561386	   -125.12158518	     26.77875362	    135.10221076	     13.55996720	    -16.11922410	     16.02580681	    -31.60832486	    203.10341245	   -108.18103550	     29.40388121	    118.87323823	    -22.43824390	    -12.84877979	     41.54401002
      0.01500000	     -0.26265375	     17.89991633	    -92.12039588	      0.00127651	      0.95930072	      0.63061289	     12.82085605	     -4.92054858	    -14.41930461	     -7.60679983	     -4.68538697	      3.02860145	      4.24928588	     18.05317685	     -2.39554217	    -12.48095602	    -10.92608144	      2.16301208	      1.56356869	     -1.53036840	      8.21954290	      2.26094082	      0.43387811	     32.06924751	      0.91144550	     11.09657413	    -34.24126676	   -161.88675442	   -125.11626212	     26.76223245	    135.10200417	     13.56756463	    -16.12321713	     16.03302246	    -31.57080171	    203.12436825	   -108.18115992	     29.40119023	    118.87871826	    -22.43069000	    -12.85321919	     41.54968283
      0.01750000	     -0.25613132	     17.92442715	    -92.13937629	      0.00113065	      0.95956166	      0.63153788	     12.82347613	     -4.90784116	    -14.43116405	     -7.60759119	     -4.70973123	      3.02031174	      4.24807208	     18.01773444	     -2.40688215	    -12.48664750	    -10.93934672	      2.15214097	      1.56496767	     -1.53209290	      8.24771184	      2.24755442	      0.44195984	     32.06164825	      0.90830064	     11.09241033	    -34.22350249	   -161.85700803	   -125.10141200	     26.73914490	    135.10454136	     13.58202688	    -16.13022675	     16.04532318	    -31.52635922	    203.14833652	   -108.17219568	     29.40097505	    118.88683563	    -22.41577247	    -12.86139620	     41.55889914
      0.02000000	     -0.25870486	     18.08706949	    -92.20225367	      0.00091250	      0.95968733	      0.63223991	     13.00630002	     -4.84393390	    -14.80205478	     -7.48845592	     -6.13122387	      2.40072438	      4.23034043	     18.03789052	     -2.45164543	    -12.97348075	    -10.63824953	      1.62190691	      1.70452373	     -1.62971560	      8.33360109	      2.29610749	      0.39539258	     32.08167926	      0.72248547	     10.82460280	    -33.81758612	   -161.92414108	   -124.01618670	     26.57616115	    134.94126603	     14.46945706	    -16.94146002	     17.05122386	    -30.92177021	    203.40175451	   -107.08671876	     29.57064597	    119.35994646	    -21.14300625	    -13.57117333	     42.26058307
      0.02250000	     -0.25545485	     18.11386436	    -92.20765027	      0.00079555	      0.95990363	      0.63319588	     12.98325699	     -4.83611042	    -14.80326322	     -7.50266522	     -6.13467043	      2.39347781	      4.23186633	     17.99720411	     -2.44907447	    -12.96928562	    -10.65900493	      1.61780631	      1.70788759	     -1.63031883	      8.37620034	      2.29806457	      0.40961243	     32.08381268	      0.72462711	     10.82397639	    -33.80646889	   -161.89834979	   -124.01892249	     26.55675774	    134.93871773	     14.46903862	    -16.94293041	     17.05986351	    -30.90734901	    203.42322028	   -107.08781120	     29.56655949	    119.35985304	    -21.13615764	    -13.57543875	     42.26479389
      0.02500000	     -0.24964166	     18.13631348	    -92.21681226	      0.00074951	      0.96016496	      0.63414120	     12.96072405	     -4.82158911	    -14.80627244	     -7.52380505	     -6.14129154	      2.38680000	      4.23299235	     17.97083243	     -2.45409344	    -12.96582096	    -10.66876207	      1.61339700	      1.71097458	     -1.63094834	      8.41042068	      2.28979386	      0.41903696	     32.08236283	      0.72657305	     10.82227653	    -33.78908628	   -161.87710062	   -124.01817185	     26.54005575	    134.93759009	     14.47222200	    -16.94579479	     17.06996412	    -30.89876241	    203.44669084	   -107.08263569	     29.56224169	    119.36027066	    -21.12595335	    -13.58079347	     42.27013608
      0.02750000	     -0.24297832	     18.16319724	    -92.22345487	      0.00063894	      0.96039260	      0.63507681	     12.93661435	     -4.80331195	    -14.81091790	     -7.55598435	     -6.15260439	      2.37902508	      4.23408795	     17.94090337	     -2.45921483	    -12.96244189	    -10.67621608	      1.60675756	      1.71505351	     -1.63181914	      8.44920208	      2.28222074	      0.43100203	     32.07723865	      0.72913543	     10.81896044	    -33.76710261	   -161.85419521	   -124.01362830	     26.52150313	    134.93671873	     14.48007007	    -16.95114001	     17.08425371	    -30.88612194	    203.47501150	   -107.07139494	     29.55792607	    119.36111401	    -21.11005178	    -13.58871267	     42.27795164
      0.03000000	     -0.27424211	     18.26794322	    -92.31267928	      0.00039578	      0.96049707	      0.63586393	     13.25510892	     -4.67062056	    -14.10139548	     -7.98783290	     -7.05830916	      0.16947549	      5.37863639	     17.82780591	     -2.52936234	    -13.09001077	    -10.34002243	      1.59261557	      2.18054548	     -1.67649581	      8.50142422	      2.36141794	      0.44640213	     32.10632452	      0.69990681	     10.76407811	    -33.43875738	   -161.94314002	   -122.93276269	     26.16914253	    133.68877521	     13.17078950	    -17.65065704	     22.60954352	    -30.43623571	    203.63864431	   -106.62864210	     29.42931116	    117.91498764	    -18.43470069	    -15.29296929	     43.36839168
